<?xml version="1.0" encoding="UTF-8" standalone="no"?>
<!-- Created with Inkscape (http://www.inkscape.org/) -->

<svg
   width="445.5"
   height="445.5"
   viewBox="0 0 117.87187 117.87187"
   version="1.1"
   id="svg5"
   inkscape:version="1.2.2 (b0a8486541, 2022-12-01)"
   sodipodi:docname="django.svg"
   xmlns:inkscape="http://www.inkscape.org/namespaces/inkscape"
   xmlns:sodipodi="http://sodipodi.sourceforge.net/DTD/sodipodi-0.dtd"
   xmlns="http://www.w3.org/2000/svg"
   xmlns:svg="http://www.w3.org/2000/svg">
  <sodipodi:namedview
     id="namedview7"
     pagecolor="#ffffff"
     bordercolor="#999999"
     borderopacity="1"
     inkscape:showpageshadow="0"
     inkscape:pageopacity="0"
     inkscape:pagecheckerboard="0"
     inkscape:deskcolor="#d1d1d1"
     inkscape:document-units="mm"
     showgrid="false"
     inkscape:zoom="0.2102413"
     inkscape:cx="397.16269"
     inkscape:cy="561.25984"
     inkscape:window-width="1366"
     inkscape:window-height="699"
     inkscape:window-x="0"
     inkscape:window-y="0"
     inkscape:window-maximized="1"
     inkscape:current-layer="layer1" />
  <defs
     id="defs2" />
  <g
     inkscape:label="Capa 1"
     inkscape:groupmode="layer"
     id="layer1">
    <g
       fill="none"
       id="g15"
       transform="scale(0.46043701)">
      <rect
         width="256"
         height="256"
         fill="#092e20"
         rx="60"
         id="rect9"
         x="0"
         y="0" />
      <path
         fill="#ffffff"
         d="m 112.689,51 h 28.615 v 132.45 c -14.679,2.787 -25.456,3.902 -37.161,3.902 C 69.209,187.351 51,171.559 51,141.271 c 0,-29.173 19.325,-48.124 49.24,-48.124 4.645,0 8.175,0.37 12.449,1.485 z m 0,66.671 c -3.344,-1.113 -6.131,-1.485 -9.661,-1.485 -14.493,0 -22.856,8.919 -22.856,24.526 0,15.238 7.991,23.599 22.67,23.599 3.157,0 5.76,-0.186 9.847,-0.742 z"
         id="path11" />
      <path
         fill="#ffffff"
         d="m 186.826,95.19 v 66.332 c 0,22.856 -1.672,33.818 -6.689,43.295 -4.646,9.106 -10.778,14.865 -23.413,21.183 l -26.571,-12.636 c 12.635,-5.945 18.767,-11.146 22.668,-19.139 4.089,-8.175 5.391,-17.652 5.391,-42.55 V 95.189 Z M 158.212,51.152 h 28.614 V 80.51 h -28.614 z"
         id="path13" />
    </g>
  </g>
</svg>
