<?xml version="1.0" encoding="UTF-8" standalone="no"?>
<svg
   id="Layer_1"
   data-name="Layer 1"
   viewBox="0 0 445.5 445.5"
   version="1.1"
   sodipodi:docname="Ionic.svg"
   width="445.5"
   height="445.5"
   inkscape:export-filename="Ionic.png"
   inkscape:export-xdpi="96"
   inkscape:export-ydpi="96"
   inkscape:version="1.2.2 (b0a8486541, 2022-12-01)"
   xmlns:inkscape="http://www.inkscape.org/namespaces/inkscape"
   xmlns:sodipodi="http://sodipodi.sourceforge.net/DTD/sodipodi-0.dtd"
   xmlns="http://www.w3.org/2000/svg"
   xmlns:svg="http://www.w3.org/2000/svg"
   xmlns:rdf="http://www.w3.org/1999/02/22-rdf-syntax-ns#"
   xmlns:cc="http://creativecommons.org/ns#"
   xmlns:dc="http://purl.org/dc/elements/1.1/">
  <sodipodi:namedview
     id="namedview24"
     pagecolor="#ffffff"
     bordercolor="#000000"
     borderopacity="0.25"
     inkscape:showpageshadow="2"
     inkscape:pageopacity="0.0"
     inkscape:pagecheckerboard="0"
     inkscape:deskcolor="#d1d1d1"
     showgrid="false"
     inkscape:zoom="0.56760953"
     inkscape:cx="219.34093"
     inkscape:cy="172.6539"
     inkscape:window-width="1366"
     inkscape:window-height="699"
     inkscape:window-x="0"
     inkscape:window-y="0"
     inkscape:window-maximized="1"
     inkscape:current-layer="Layer_1" />
  <defs
     id="defs4">
    <style
       type="text/css"
       id="style2"><![CDATA[
	.cls-1{fill:#478aff;}
      ]]></style>
  </defs>
  <title
     id="title6"> ionic-logo-landscape</title>
  <g
     id="g189"
     transform="matrix(3.0301953,0,0,3.0301953,0.02896104,0.12189797)">
    <path
       class="cls-1"
       d="M 73.5,40 A 33.5,33.5 0 1 0 107,73.5 33.54,33.54 0 0 0 73.5,40 Z"
       id="path8" />
    <circle
       class="cls-1"
       cx="121.6"
       cy="27.709999"
       r="15.26"
       id="circle10" />
    <path
       class="cls-1"
       d="m 140.39,43.05 -0.64,-1.4 -1,1.16 a 23,23 0 0 1 -9.21,6.34 l -1,0.36 0.4,1 A 60.09,60.09 0 1 1 99.23,19.3 l 0.94,0.45 0.41,-1 a 23,23 0 0 1 6.78,-8.89 l 1.2,-1 -1.37,-0.71 a 72.68,72.68 0 0 0 -33.7,-8.19 73.51,73.51 0 1 0 66.89,43 z"
       id="path12" />
  </g>
  <metadata
     id="metadata184">
    <rdf:RDF>
      <cc:Work
         rdf:about="">
        <dc:title> ionic-logo-landscape</dc:title>
      </cc:Work>
    </rdf:RDF>
  </metadata>
</svg>
